<svg id="Layer_1" data-name="Layer 1" xmlns="http://www.w3.org/2000/svg" viewBox="0 0 245.03 247.43">
  <title>leaf</title>
  <path d="M259.6,141.76c-41.52-16.69-84.56-19.9-127.93-9.51a5.46,5.46,0,0,0-1.43,10.06c11.93,6.78,13.5,23.73,15.67,47.18,3.27,35.29,7.75,83.63,53.2,129.08,35,35,79.37,44.18,109.17,41.05,16.52-1.73,30.12-7.26,38.59-15.49A163.55,163.55,0,0,1,358.46,370a5.46,5.46,0,1,0,10.36-3.45,178.18,178.18,0,0,0-13.54-29.71,30.87,30.87,0,0,0,3.2-2.79c6-6,10.22-14.94,12.4-26.41,3.32-17.5,1.51-38.91-5.12-60.27-7.27-23.46-19.49-44.24-35.35-60.09-6.67-6.67-31.51-29.68-70.83-45.49Zm47.55,207c-27.3,2.86-68-5.59-100.31-37.91-18.91-18.91-31.92-39.87-39.78-64.08-6.81-21-8.64-40.79-10.26-58.29-1.42-15.33-2.67-28.74-7-39.11,28.14,13.3,68.13,43.85,107.82,83q2.32,2.29,4.61,4.58c-10.21,2.49-22.71,1.45-35.82-3.07-13.53-4.66-27-12.84-36-21.87a5.46,5.46,0,1,0-7.72,7.72c10.3,10.3,24.95,19.22,40.19,24.47,22.56,7.78,38.53,5.12,48,1.5,9.73,10.09,18.88,20.15,27.35,30.07-26.6,12.6-71.34,1.88-83.83-6.73a5.46,5.46,0,0,0-6.2,9c9.12,6.28,27.36,11.78,45.4,13.68,20.68,2.18,38.87-.43,51.84-7.36,6.86,8.34,13.21,16.55,19,24.53-13.41,10-45.4,14.22-65.53,5a5.46,5.46,0,0,0-4.55,9.93c20.38,9.33,57.57,7.94,76.37-6q5.76,8.42,10.57,16.42c-6.18,7.56-18.66,12.93-34,14.55Zm53-43.17c-1.87,9.83-5.51,17.29-10.46,21.66-5.23-8.58-11.25-17.53-18-26.73,7.42-10,11.62-31.84,8.38-44.8a5.46,5.46,0,1,0-10.6,2.65c2.36,9.43-.56,24.7-4.79,32.81q-8.59-11.18-18.44-22.7l.06-.08c13.95-20.15,8.37-49.85.2-63.57a5.46,5.46,0,0,0-9.39,5.58c6.65,11.18,10.54,33.94,1.64,49.48-8.94-10.1-18.53-20.3-28.65-30.46,2.95-8.27,2.95-18.66,0-29.38-3.51-12.6-11.08-25.5-21.9-37.3a5.46,5.46,0,0,0-8.05,7.38c18.18,19.85,22.71,38.36,21,50.41-39.8-38.64-78.77-68-107.38-81.33,34.49-4.85,68.65-.6,101.78,12.73,37.4,15,60.87,36.77,67.18,43.08,31.91,31.91,43.12,80.8,37.46,110.6Z" transform="translate(-127.48 -126.29)"/>
  <path d="M259.6,141.76c-41.52-16.69-84.56-19.9-127.93-9.51a5.46,5.46,0,0,0-1.43,10.06c11.93,6.78,13.5,23.73,15.67,47.18,3.27,35.29,7.75,83.63,53.2,129.08,35,35,79.37,44.18,109.17,41.05,16.52-1.73,30.12-7.26,38.59-15.49A163.55,163.55,0,0,1,358.46,370a5.46,5.46,0,1,0,10.36-3.45,178.18,178.18,0,0,0-13.54-29.71,30.87,30.87,0,0,0,3.2-2.79c6-6,10.22-14.94,12.4-26.41,3.32-17.5,1.51-38.91-5.12-60.27-7.27-23.46-19.49-44.24-35.35-60.09-6.67-6.67-31.51-29.68-70.83-45.49Zm47.55,207c-27.3,2.86-68-5.59-100.31-37.91-18.91-18.91-31.92-39.87-39.78-64.08-6.81-21-8.64-40.79-10.26-58.29-1.42-15.33-2.67-28.74-7-39.11,28.14,13.3,68.13,43.85,107.82,83q2.32,2.29,4.61,4.58c-10.21,2.49-22.71,1.45-35.82-3.07-13.53-4.66-27-12.84-36-21.87a5.46,5.46,0,1,0-7.72,7.72c10.3,10.3,24.95,19.22,40.19,24.47,22.56,7.78,38.53,5.12,48,1.5,9.73,10.09,18.88,20.15,27.35,30.07-26.6,12.6-71.34,1.88-83.83-6.73a5.46,5.46,0,0,0-6.2,9c9.12,6.28,27.36,11.78,45.4,13.68,20.68,2.18,38.87-.43,51.84-7.36,6.86,8.34,13.21,16.55,19,24.53-13.41,10-45.4,14.22-65.53,5a5.46,5.46,0,0,0-4.55,9.93c20.38,9.33,57.57,7.94,76.37-6q5.76,8.42,10.57,16.42c-6.18,7.56-18.66,12.93-34,14.55Zm53-43.17c-1.87,9.83-5.51,17.29-10.46,21.66-5.23-8.58-11.25-17.53-18-26.73,7.42-10,11.62-31.84,8.38-44.8a5.46,5.46,0,1,0-10.6,2.65c2.36,9.43-.56,24.7-4.79,32.81q-8.59-11.18-18.44-22.7l.06-.08c13.95-20.15,8.37-49.85.2-63.57a5.46,5.46,0,0,0-9.39,5.58c6.65,11.18,10.54,33.94,1.64,49.48-8.94-10.1-18.53-20.3-28.65-30.46,2.95-8.27,2.95-18.66,0-29.38-3.51-12.6-11.08-25.5-21.9-37.3a5.46,5.46,0,0,0-8.05,7.38c18.18,19.85,22.71,38.36,21,50.41-39.8-38.64-78.77-68-107.38-81.33,34.49-4.85,68.65-.6,101.78,12.73,37.4,15,60.87,36.77,67.18,43.08,31.91,31.91,43.12,80.8,37.46,110.6Z" transform="translate(-127.48 -126.29)" style="fill: #0b6936"/>
</svg>
